<?xml version="1.0" encoding="iso-8859-1"?>
<!-- Generator: Adobe Illustrator 19.0.0, SVG Export Plug-In . SVG Version: 6.00 Build 0)  -->
<svg version="1.1" id="Layer_1" xmlns="http://www.w3.org/2000/svg" xmlns:xlink="http://www.w3.org/1999/xlink" x="0px" y="0px"
	 viewBox="0 0 512 512" style="enable-background:new 0 0 512 512;" xml:space="preserve">
<path style="fill:#FF8163;" d="M255.999,241.524c-3.294,0-6.456-1.33-8.784-3.693l-85.694-87.05
	c-12.115-12.293-18.787-28.644-18.787-46.033c0-17.385,6.674-33.735,18.787-46.031c12.115-12.297,28.225-19.069,45.357-19.069
	s33.241,6.772,45.357,19.069l3.764,3.82l3.765-3.82c12.115-12.297,28.221-19.069,45.357-19.069c17.133,0,33.241,6.772,45.356,19.069
	c12.117,12.297,18.791,28.647,18.791,46.032c0,17.389-6.676,33.74-18.79,46.033l-85.696,87.05
	C262.453,240.194,259.295,241.524,255.999,241.524z"/>
<g>
	<path style="fill:#65A5A5;" d="M89.834,472.352c-4.465,0-8.084-3.62-8.084-8.084v-39.775c0-4.465,3.62-8.084,8.084-8.084
		s8.084,3.62,8.084,8.084v39.775C97.918,468.732,94.299,472.352,89.834,472.352z"/>
	<path style="fill:#65A5A5;" d="M131.047,472.352c-4.465,0-8.083-3.62-8.083-8.084v-39.775c0-4.465,3.618-8.084,8.083-8.084
		c4.465,0,8.084,3.62,8.084,8.084v39.775C139.131,468.732,135.512,472.352,131.047,472.352z"/>
</g>
<path style="fill:#FFC25E;" d="M221.575,284.365h-21.999v42.566h21.999c11.617,0,21.034-9.528,21.034-21.285
	C242.609,293.894,233.192,284.365,221.575,284.365z"/>
<path style="fill:#CE913A;" d="M219.216,300.257h-19.641v10.778h19.641c2.978,0,5.39-2.413,5.39-5.39
	C224.606,302.67,222.193,300.257,219.216,300.257z"/>
<path style="fill:#FFC25E;" d="M290.425,284.365h21.999v42.566h-21.999c-11.617,0-21.034-9.528-21.034-21.285
	C269.391,293.894,278.808,284.365,290.425,284.365z"/>
<path style="fill:#CE913A;" d="M292.784,300.257h19.641v10.778h-19.641c-2.978,0-5.39-2.413-5.39-5.39
	C287.394,302.67,289.806,300.257,292.784,300.257z"/>
<path style="fill:#9EF0F4;" d="M72.381,427.626C32.47,427.626,0,394.769,0,354.382v-11.068c0-3.048,2.467-5.517,5.511-5.517h41.255
	v-47.239c0-43.667,35.108-79.195,78.262-79.195c43.153,0,78.262,35.528,78.262,79.195v57.873c0,43.668-35.11,79.195-78.262,79.195
	L72.381,427.626L72.381,427.626z"/>
<g>
	<path style="fill:#65A5A5;" d="M116.853,389.774c-25.54,0-46.319-20.986-46.319-46.781c0-4.329,3.508-7.837,7.837-7.837h33.322
		c4.329,0,7.837,3.508,7.837,7.837c0,4.329-3.508,7.837-7.837,7.837H87.192c3.431,13.372,15.43,23.271,29.662,23.271
		c16.899,0,30.648-13.955,30.648-31.108c0-4.329,3.508-7.837,7.837-7.837c4.329,0,7.837,3.508,7.837,7.837
		C163.174,368.788,142.395,389.774,116.853,389.774z"/>
	<path style="fill:#65A5A5;" d="M155.13,292.551c-4.465,0-8.084-3.62-8.084-8.084v-6.092c0-4.465,3.62-8.083,8.084-8.083
		s8.083,3.618,8.083,8.083v6.092C163.213,288.933,159.595,292.551,155.13,292.551z"/>
</g>
<g>
	<path style="fill:#995C68;" d="M422.166,472.352c-4.465,0-8.084-3.62-8.084-8.084v-39.775c0-4.465,3.62-8.084,8.084-8.084
		c4.465,0,8.084,3.62,8.084,8.084v39.775C430.251,468.732,426.632,472.352,422.166,472.352z"/>
	<path style="fill:#995C68;" d="M380.953,472.352c-4.466,0-8.084-3.62-8.084-8.084v-39.775c0-4.465,3.62-8.084,8.084-8.084
		c4.465,0,8.083,3.62,8.083,8.084v39.775C389.036,468.732,385.418,472.352,380.953,472.352z"/>
</g>
<path style="fill:#FFBAC5;" d="M439.618,427.626c39.911,0,72.382-32.857,72.382-73.244v-11.068c0-3.048-2.467-5.517-5.512-5.517
	h-41.253v-47.239c0-43.667-35.108-79.195-78.262-79.195s-78.262,35.528-78.262,79.195v57.873c0,43.668,35.109,79.195,78.262,79.195
	L439.618,427.626L439.618,427.626z"/>
<g style="opacity:0.1;">
	<path d="M194.396,139.899c-12.115-12.293-18.787-28.643-18.787-46.032c0-17.385,6.674-33.735,18.787-46.032
		c3.038-3.083,6.327-5.818,9.818-8.186c-16.132,0.664-31.21,7.346-42.693,19.003c-12.115,12.295-18.787,28.646-18.787,46.031
		c0,17.389,6.674,33.74,18.787,46.033l85.694,87.05c2.329,2.363,5.491,3.693,8.784,3.693c3.296,0,6.454-1.33,8.781-3.693
		l12.98-13.182L194.396,139.899z"/>
</g>
<path style="opacity:0.1;enable-background:new    ;" d="M341.585,348.431v-57.873c0-37.962,26.538-69.758,61.825-77.424
	c-5.303-1.151-10.8-1.771-16.438-1.771c-43.154,0-78.262,35.528-78.262,79.195v57.873c0,43.668,35.109,79.195,78.262,79.195h32.876
	C376.695,427.626,341.585,392.1,341.585,348.431z"/>
<path style="fill:#D898A4;" d="M395.147,389.774c-25.541,0-46.321-20.986-46.321-46.781c0-4.329,3.508-7.837,7.837-7.837
	s7.837,3.508,7.837,7.837c0,17.153,13.749,31.108,30.648,31.108c14.232,0,26.23-9.9,29.662-23.271H400.31
	c-4.329,0-7.837-3.508-7.837-7.837c0-4.329,3.508-7.837,7.837-7.837h33.321c4.328,0,7.837,3.508,7.837,7.837
	C441.466,368.788,420.687,389.774,395.147,389.774z"/>
<path style="fill:#995C68;" d="M356.87,292.551c-4.465,0-8.084-3.62-8.084-8.084v-6.092c0-4.465,3.62-8.083,8.084-8.083
	c4.465,0,8.084,3.618,8.084,8.083v6.092C364.955,288.933,361.336,292.551,356.87,292.551z"/>
<path style="fill:#68BCBC;" d="M3.727,377.533H25.33c4.465,0,8.083-3.618,8.083-8.083c0-4.465-3.618-8.084-8.083-8.084H0.336
	C0.863,366.962,2.023,372.371,3.727,377.533z"/>
<path style="fill:#D898A4;" d="M511.664,361.365H486.67c-4.465,0-8.083,3.62-8.083,8.084c0,4.465,3.618,8.083,8.083,8.083h21.604
	C509.977,372.371,511.137,366.962,511.664,361.365z"/>
<g style="opacity:0.1;">
	<path d="M33.953,354.382v-11.068c0-3.048,2.467-5.517,5.512-5.517H5.511c-3.044,0-5.511,2.469-5.511,5.517v11.068
		c0,40.386,32.47,73.244,72.381,73.244h33.954C66.424,427.626,33.953,394.769,33.953,354.382z"/>
</g>
<g>
</g>
<g>
</g>
<g>
</g>
<g>
</g>
<g>
</g>
<g>
</g>
<g>
</g>
<g>
</g>
<g>
</g>
<g>
</g>
<g>
</g>
<g>
</g>
<g>
</g>
<g>
</g>
<g>
</g>
</svg>
