<svg class="icon" style="width: 1em; height: 1em;vertical-align: middle;fill: currentColor;overflow: hidden;" viewBox="0 0 1024 1024" version="1.1" xmlns="http://www.w3.org/2000/svg" p-id="1444"><path d="M808.72034 551.325957c-72.420766-48.661787-194.777872-48.661787-267.198638 0a329.368511 329.368511 0 0 1-181.825362 51.396086 329.292255 329.292255 0 0 1-181.825361-51.396086 44.184511 44.184511 0 0 1-12.113702-60.906212 43.258553 43.258553 0 0 1 60.328851-12.189958c72.420766 48.672681 194.788766 48.672681 267.198638 0 101.964255-68.520851 261.675574-68.520851 363.650723 0a44.173617 44.173617 0 0 1 12.102809 60.895319 43.269447 43.269447 0 0 1-60.317958 12.200851z m0-224.757106c-72.420766-48.661787-194.777872-48.661787-267.198638 0A329.379404 329.379404 0 0 1 359.69634 378.008511a329.292255 329.292255 0 0 1-181.825361-51.396085 44.184511 44.184511 0 0 1-12.113702-60.906213 43.24766 43.24766 0 0 1 60.328851-12.222639c72.420766 48.672681 194.788766 48.672681 267.198638 0 101.964255-68.520851 261.675574-68.520851 363.650723 0a44.173617 44.173617 0 0 1 12.102809 60.89532 43.28034 43.28034 0 0 1-60.317958 12.189957zM226.086128 702.965106C298.485106 751.659574 420.874894 751.659574 493.29566 702.965106c101.964255-68.520851 261.675574-68.520851 363.650723 0a44.173617 44.173617 0 0 1 12.102808 60.89532 43.269447 43.269447 0 0 1-60.328851 12.222638c-72.420766-48.661787-194.777872-48.661787-267.198638 0a329.368511 329.368511 0 0 1-181.825362 51.396085 329.292255 329.292255 0 0 1-181.825361-51.396085 44.184511 44.184511 0 0 1-12.113702-60.906213 43.258553 43.258553 0 0 1 60.328851-12.211745z" fill="#333333" p-id="1445"></path></svg>