<?xml version="1.0" encoding="iso-8859-1"?>
<!-- Generator: Adobe Illustrator 19.0.0, SVG Export Plug-In . SVG Version: 6.00 Build 0)  -->
<svg version="1.1" id="Layer_1" xmlns="http://www.w3.org/2000/svg" xmlns:xlink="http://www.w3.org/1999/xlink" x="0px" y="0px"
	 viewBox="0 0 512.001 512.001" style="enable-background:new 0 0 512.001 512.001;" xml:space="preserve">
<polygon style="fill:#FFAD41;" points="313.119,476.991 313.119,401.137 278.11,401.137 278.11,476.991 254.77,476.991 
	254.77,401.137 219.76,401.137 219.76,476.991 178.915,476.991 178.915,512.001 330.624,512.001 330.624,476.991 "/>
<polygon style="fill:#FF9811;" points="97.225,196.913 43.544,161.126 97.225,150.233 "/>
<polygon style="fill:#FFAD41;" points="97.225,161.126 43.544,161.126 97.225,125.336 "/>
<path style="fill:#EE5DA2;" d="M220.998,32.663c3.872-13.591-4.035-27.8-17.627-31.675c-7.602-2.164-15.654-0.736-22.085,3.926
	l-13.117,9.506L155.05,4.914c-6.432-4.663-14.484-6.091-22.087-3.926c-13.591,3.873-21.497,18.083-17.626,31.675
	c2.544,8.765,25.681,35.358,52.827,61.365C195.317,68.005,218.458,41.412,220.998,32.663z"/>
<path style="fill:#FFF0B4;" d="M461.474,229.458c-6.323-11.356-16.222-19.91-28.049-24.507
	c-4.603-11.826-13.161-21.721-24.521-28.039c-26.543-14.761-60.149-5.177-74.912,21.367c-2.898,5.211-5.032,12.358-6.519,21.976
	H81.564v17.505c0,94.656,77.009,171.665,171.665,171.665h55.381c56.648,0,103.391-43.227,108.981-98.424
	c9.907-1.494,17.236-3.66,22.552-6.619c12.856-7.156,22.154-18.891,26.184-33.041S468.632,242.313,461.474,229.458z"/>
<path style="fill:#FFDA44;" d="M168.167,45.204c-47.753,0-86.603,38.85-86.603,86.604v95.201c0,47.753,38.85,86.604,86.603,86.604
	s86.603-38.85,86.603-86.604v-95.201C254.77,84.054,215.92,45.204,168.167,45.204z"/>
<circle style="fill:#50412E;" cx="167.242" cy="144.393" r="17.505"/>
<path style="fill:#FFE98F;" d="M461.474,229.458c-6.323-11.356-16.222-19.91-28.049-24.507
	c-4.603-11.826-13.161-21.721-24.521-28.039c-26.543-14.761-60.149-5.177-74.912,21.367c-2.898,5.211-5.032,12.358-6.519,21.976
	h-61.033v189.17h42.168c56.648,0,103.391-43.227,108.981-98.424c9.907-1.494,17.236-3.66,22.552-6.619
	c12.856-7.156,22.154-18.891,26.184-33.041S468.632,242.313,461.474,229.458z"/>
<path style="fill:#EE5DA2;" d="M295.614,374.413c-19.304,0-35.01-15.705-35.01-35.01h-35.01c0,38.671,31.349,70.02,70.02,70.02
	s70.02-31.349,70.02-70.02h-35.01C330.624,358.707,314.919,374.413,295.614,374.413z"/>
<g>
</g>
<g>
</g>
<g>
</g>
<g>
</g>
<g>
</g>
<g>
</g>
<g>
</g>
<g>
</g>
<g>
</g>
<g>
</g>
<g>
</g>
<g>
</g>
<g>
</g>
<g>
</g>
<g>
</g>
</svg>
