<?xml version="1.0" encoding="iso-8859-1"?>
<!-- Generator: Adobe Illustrator 19.0.0, SVG Export Plug-In . SVG Version: 6.00 Build 0)  -->
<svg version="1.1" id="Layer_1" xmlns="http://www.w3.org/2000/svg" xmlns:xlink="http://www.w3.org/1999/xlink" x="0px" y="0px"
	 viewBox="0 0 512.001 512.001" style="enable-background:new 0 0 512.001 512.001;" xml:space="preserve">
<polygon points="401.373,139.385 441.037,98.224 441.786,138.636 479.379,153.488 426.934,176.228 "/>
<path style="fill:#6FC8F1;" d="M160.009,52.59l-13.256,17.525c-32.715,43.246-19.924,97.245-13.002,118.263
	c-3.868,6.493-8.88,16.466-12.06,28.73c-7.653,29.508-1.015,57.393,19.198,80.641c15.766,18.134,37.041,29.085,59.905,30.839
	c2.236,0.172,4.479,0.257,6.73,0.257c21.694,0,43.935-7.936,64.736-23.17c16.387-12.004,29.08-28.255,36.705-46.997l3.651-8.973
	L160.009,52.59z"/>
<path style="fill:#4BBAED;" d="M314.885,251.975l-8.973,3.651c-18.745,7.626-34.997,20.32-46.999,36.706
	C242.1,315.289,234.178,340,236.002,363.795c1.752,22.864,12.705,44.138,30.84,59.906c16.98,14.764,36.434,22.286,57.19,22.285
	c7.659,0,15.497-1.025,23.451-3.087c12.265-3.182,22.237-8.193,28.73-12.06c21.018,6.925,75.017,19.714,118.263-13.002
	l17.525-13.256L314.885,251.975z"/>
<path style="fill:#DBF1FB;" d="M369.229,216.807l-3.111-5.049l-69.577-24.646l-7.407,6.471
	c-0.899,0.785-90.51,78.762-150.271,103.665c-32.553,12.625-71.312,18.284-71.694,18.338L0,325.181l109.646,39.277l-56.101,94.953
	l50.57-24.875c0.752-0.371,76.222-37.034,157.317-37.034c36.819,0,68.482-12.122,91.564-35.054
	c21.795-21.652,33.798-51.313,33.798-83.52C386.794,256.938,380.72,235.456,369.229,216.807z"/>
<path style="fill:#B7E4F8;" d="M365.133,111.9c-49.351,0-89.501,40.149-89.501,89.5c0,1.179,0.044,2.349,0.09,3.517
	c-27.367,22.699-90.927,73.189-136.861,92.33c-32.553,12.625-71.312,18.284-71.694,18.338L0,325.181l109.646,39.277l-56.101,94.953
	l50.57-24.875c0.508-0.251,35.058-17.033,82.401-27.917c44.762-21.151,93.69-51.845,116.042-91.617
	c10.371-18.455,11.568-32.852,11.226-40.365c14.548,10.232,32.253,16.263,51.35,16.263c49.35,0,89.501-40.149,89.501-89.501
	C454.634,152.05,414.484,111.9,365.133,111.9z"/>
<circle cx="384.562" cy="193.045" r="16.816"/>
<path style="fill:#6FC8F1;" d="M415.232,127.272c-14.306-9.699-31.552-15.373-50.098-15.373c-26.277,0-49.944,11.385-66.332,29.48
	c13.915,11.925,31.981,19.144,51.744,19.144C377.207,160.524,400.792,147.398,415.232,127.272z"/>
<g>
</g>
<g>
</g>
<g>
</g>
<g>
</g>
<g>
</g>
<g>
</g>
<g>
</g>
<g>
</g>
<g>
</g>
<g>
</g>
<g>
</g>
<g>
</g>
<g>
</g>
<g>
</g>
<g>
</g>
</svg>
