<?xml version="1.0" encoding="iso-8859-1"?>
<!-- Generator: Adobe Illustrator 19.0.0, SVG Export Plug-In . SVG Version: 6.00 Build 0)  -->
<svg version="1.1" id="Layer_1" xmlns="http://www.w3.org/2000/svg" xmlns:xlink="http://www.w3.org/1999/xlink" x="0px" y="0px"
	 viewBox="0 0 512 512" style="enable-background:new 0 0 512 512;" xml:space="preserve">
<path style="fill:#FF7B78;" d="M250.296,59.953c51.371,2.712,19.607,50.214-9.723,48.123l-125.32-8.437
	c1.104-74.441,72.619-119.134,92.559-91.294c4.042,5.575,3.205,13.229-0.976,20.787C249.653,19.935,268.006,45.138,250.296,59.953z"
	/>
<g style="opacity:0.1;">
	<path d="M142.054,99.64c0.738-49.705,32.865-86.139,60.072-96.582c-25.2-15.241-85.856,28.069-86.873,96.582H142.054z"/>
</g>
<path style="fill:#FFD77A;" d="M102.462,113.301c0,0-36.805-2.328-48.109,18.162c0,0-1.399,30.187,19.792,40.177L102.462,113.301z"
	/>
<g style="opacity:0.1;">
	<path d="M55.686,129.335c-0.473,0.683-0.925,1.387-1.335,2.129c0,0-1.399,30.187,19.792,40.177l5.565-11.465
		C66.557,153.182,59.386,139.582,55.686,129.335z"/>
</g>
<path style="fill:#FFA561;" d="M436.082,245.499c0,102.609-83.181,185.789-185.789,185.789
	c-102.608,0-185.788-83.181-185.789-185.788c0-76.33,29.187-171.821,121.549-171.821c82.874,0,66.299,140.887,112.341,140.887
	L436.082,245.499z"/>
<path style="fill:#43434D;" d="M147.181,156.99c-2.101,0-4.221-0.25-6.313-0.765c-10.7-2.638-18.77-11.762-20.081-22.702
	c-0.529-4.409,2.618-8.411,7.027-8.94c4.412-0.522,8.411,2.618,8.94,7.027c0.52,4.337,3.721,7.956,7.965,9.003
	c4.246,1.048,8.763-0.669,11.239-4.27c2.516-3.66,7.522-4.586,11.18-2.069c3.659,2.516,4.585,7.522,2.069,11.18
	C164.183,152.761,155.829,156.99,147.181,156.99z"/>
<path style="fill:#FF8D61;" d="M267.063,209.204c-37.971,0-68.752,30.781-68.752,68.752l0,0c0,37.971,30.781,68.752,68.752,68.752
	h41.171c75.942,0,137.505-61.563,137.505-137.505l0,0H267.063V209.204z"/>
<path style="fill:#AF9CE6;" d="M389.486,474.265c-22.13-9.424-38.265-36.078-21.242-76.054s53.98-61.571,75.877-52.246
	c21.897,9.324,31.939,50.934,14.915,90.91C442.014,476.85,411.616,483.689,389.486,474.265z"/>
<path style="opacity:0.1;enable-background:new    ;" d="M437.596,426.154c13.785-32.372,9.819-65.811-3.815-82.312
	c3.689,0.093,7.175,0.775,10.341,2.124c21.897,9.324,31.939,50.934,14.915,90.91c-17.024,39.976-47.421,46.814-69.551,37.391
	c-4.537-1.932-8.814-4.6-12.612-7.947C397.714,470.681,422.744,461.031,437.596,426.154z"/>
<path style="fill:#FFD77A;" d="M314.444,506.426c-22.13-9.424-38.265-36.078-21.242-76.054s53.98-61.571,75.877-52.246
	c21.897,9.324,31.939,50.934,14.915,90.91C366.972,509.01,336.574,515.85,314.444,506.426z"/>
<path style="fill:#61CCFF;" d="M122.514,474.265c22.13-9.424,38.265-36.078,21.242-76.054s-53.98-61.571-75.877-52.246
	c-21.897,9.324-31.939,50.934-14.915,90.91S100.385,483.689,122.514,474.265z"/>
<path style="opacity:0.1;enable-background:new    ;" d="M74.404,426.154c-13.785-32.372-9.819-65.811,3.815-82.312
	c-3.689,0.093-7.175,0.775-10.341,2.124c-21.897,9.324-31.939,50.934-14.915,90.91s47.421,46.814,69.551,37.391
	c4.537-1.932,8.814-4.6,12.612-7.947C114.287,470.681,89.256,461.031,74.404,426.154z"/>
<path style="fill:#94D77F;" d="M197.556,506.426c22.13-9.424,38.265-36.078,21.242-76.054s-53.98-61.571-75.877-52.246
	c-21.897,9.324-31.939,50.934-14.915,90.91S175.426,515.85,197.556,506.426z"/>
<path style="opacity:0.1;enable-background:new    ;" d="M147.302,454.026c-12.528-29.418-10.386-59.705,0.34-77.376
	c-1.635,0.353-3.216,0.834-4.72,1.474c-21.897,9.324-31.939,50.934-14.915,90.91s47.421,46.814,69.551,37.391
	c7.326-3.12,13.986-8.14,19.012-14.896C194.462,500.777,164.253,493.834,147.302,454.026z"/>
<path style="opacity:0.1;enable-background:new    ;" d="M364.699,454.026c12.528-29.418,10.386-59.705-0.34-77.376
	c1.635,0.353,3.216,0.834,4.72,1.474c21.897,9.324,31.939,50.934,14.915,90.91c-17.024,39.976-47.421,46.814-69.551,37.391
	c-7.326-3.12-13.986-8.14-19.012-14.896C317.538,500.777,347.748,493.834,364.699,454.026z"/>
<path style="fill:#FFA0C1;" d="M256,512c24.053,0,49.341-18.202,49.341-61.651S279.8,372.551,256,372.551
	s-49.341,34.349-49.341,77.798S231.947,512,256,512z"/>
<path style="opacity:0.1;enable-background:new    ;" d="M230.243,450.349c0-36.284,17.814-66.204,37.549-75.091
	c-3.897-1.755-7.868-2.707-11.792-2.707c-23.8,0-49.341,34.349-49.341,77.798S231.947,512,256,512c3.936,0,7.905-0.497,11.792-1.504
	C247.933,505.355,230.243,486.687,230.243,450.349z"/>
<g>
</g>
<g>
</g>
<g>
</g>
<g>
</g>
<g>
</g>
<g>
</g>
<g>
</g>
<g>
</g>
<g>
</g>
<g>
</g>
<g>
</g>
<g>
</g>
<g>
</g>
<g>
</g>
<g>
</g>
</svg>
